%TF.GenerationSoftware,KiCad,Pcbnew,10.0.6*%
%TF.CreationDate,2026-09-05T05:16:09+05:30*%
%TF.ProjectId,pookie,706f6f6b-6965-42e6-9b69-6361645f7063,rev?*%
%TF.SameCoordinates,Original*%
%TF.FileFunction,Copper,L2,Bot*%
%TF.FilePolarity,Positive*%
%FSLAX46Y46*%
G04 Gerber Fmt 4.6, Leading zero omitted, Abs format (unit mm)*
G04 Created by KiCad (PCBNEW 10.0.6) date 2026-09-05 05:16:09*
%MOMM*%
%LPD*%
G01*
G04 APERTURE LIST*
%TA.AperFunction,Conductor*%
%ADD10C,0.200000*%
%TD*%
%TA.AperFunction,SMDPad,CuDef*%
%ADD11R,1.500000X5.080000*%
%TD*%
%TA.AperFunction,ViaPad*%
%ADD12C,0.600000*%
%TD*%
G04 APERTURE END LIST*
%TO.N,GND*%
D10*
X1500000Y-1500000D02*
X118500000Y-1500000D01*
X118500000Y-98500000D01*
X1500000Y-98500000D01*
X1500000Y-1500000D01*
%TA.AperFunction,Conductor*%
G36*
X1500000Y-1500000D02*
G01*
X118500000Y-1500000D01*
X118500000Y-98500000D01*
X1500000Y-98500000D01*
X1500000Y-1500000D01*
G37*
%TD.AperFunction*%
%TD*%
D11*
%TO.P,REF\u002A\u002A,2*%
%TO.N,GND*%
X2750000Y-6000000D03*
X11250000Y-6000000D03*
%TD*%
D12*
%TO.N,GND*%
X43500000Y-32500000D03*
X26500000Y-75500000D03*
X66500000Y-50000000D03*
X26500000Y-73000000D03*
X26500000Y-77500000D03*
X26500000Y-71500000D03*
X26500000Y-76000000D03*
X26500000Y-76500000D03*
X26500000Y-74500000D03*
X26500000Y-75000000D03*
X26500000Y-73500000D03*
X26500000Y-72000000D03*
X26500000Y-74000000D03*
X26500000Y-70500000D03*
X26500000Y-70000000D03*
X26500000Y-69500000D03*
X26500000Y-71000000D03*
X26500000Y-69000000D03*
X26500000Y-68500000D03*
X26500000Y-66500000D03*
X26500000Y-68000000D03*
X26500000Y-67500000D03*
X26500000Y-65000000D03*
X26500000Y-64000000D03*
X26500000Y-64500000D03*
X26500000Y-67000000D03*
X26500000Y-66000000D03*
X26500000Y-65500000D03*
X26500000Y-25000000D03*
X26500000Y-23000000D03*
X26500000Y-24000000D03*
X26500000Y-23500000D03*
X26500000Y-23500000D03*
X26500000Y-25500000D03*
X26500000Y-24500000D03*
X26500000Y-28000000D03*
X26500000Y-31000000D03*
X26500000Y-34500000D03*
X26500000Y-35500000D03*
X26500000Y-26500000D03*
X26500000Y-27000000D03*
X26500000Y-26000000D03*
X26500000Y-35000000D03*
X26500000Y-35000000D03*
X26500000Y-32500000D03*
X26500000Y-29000000D03*
X26500000Y-28500000D03*
X26500000Y-30000000D03*
X26500000Y-30500000D03*
X26500000Y-32000000D03*
X26500000Y-36000000D03*
X26500000Y-33500000D03*
X26500000Y-27500000D03*
X26500000Y-34000000D03*
X26500000Y-31500000D03*
X26500000Y-33000000D03*
X26500000Y-38000000D03*
X26500000Y-55000000D03*
X26500000Y-29500000D03*
X26500000Y-22500000D03*
X26500000Y-47000000D03*
X26500000Y-72500000D03*
X26500000Y-62500000D03*
X26500000Y-77000000D03*
X26500000Y-36500000D03*
X26500000Y-39500000D03*
X26500000Y-46000000D03*
X26500000Y-41500000D03*
X26500000Y-37000000D03*
X26500000Y-40000000D03*
X26500000Y-45000000D03*
X26500000Y-47000000D03*
X26500000Y-40500000D03*
X26500000Y-43500000D03*
X26500000Y-42000000D03*
X26500000Y-42500000D03*
X26500000Y-41000000D03*
X26500000Y-44000000D03*
X26500000Y-44500000D03*
X26500000Y-37500000D03*
X26500000Y-46500000D03*
X26500000Y-39000000D03*
X26500000Y-38500000D03*
X26500000Y-45500000D03*
X26500000Y-43000000D03*
X26500000Y-50000000D03*
X26500000Y-55500000D03*
X26500000Y-57500000D03*
X26500000Y-51000000D03*
X26500000Y-54000000D03*
X26500000Y-58000000D03*
X26500000Y-53000000D03*
X26500000Y-56500000D03*
X26500000Y-50500000D03*
X26500000Y-48000000D03*
X26500000Y-47500000D03*
X26500000Y-53500000D03*
X26500000Y-52000000D03*
X26500000Y-52500000D03*
X26500000Y-56000000D03*
X26500000Y-49500000D03*
X26500000Y-48500000D03*
X26500000Y-49000000D03*
X26500000Y-57000000D03*
X26500000Y-54500000D03*
X26500000Y-51500000D03*
X26500000Y-60000000D03*
X26500000Y-63000000D03*
X26500000Y-59000000D03*
X26500000Y-60000000D03*
X26500000Y-61000000D03*
X26500000Y-58500000D03*
X26500000Y-61500000D03*
X26500000Y-59500000D03*
X26500000Y-62000000D03*
X26500000Y-63500000D03*
X26500000Y-60500000D03*
%TD*%
%TO.N,GND*%
D10*
X60000000Y-50000000D02*
X50500000Y-50000000D01*
X50500000Y-50000000D02*
X7000000Y-6500000D01*
%TD*%
M02*
