M48
; DRILL file KiCad 10.0.6 date 2026-09-05T05:16:12
; FORMAT={-:-/ absolute / metric / decimal}
; #@! TF.CreationDate,2026-09-05T05:16:12+05:30
; #@! TF.GenerationSoftware,Kicad,Pcbnew,10.0.6
; #@! TF.FileFunction,Plated,1,2,PTH
FMAT,2
METRIC
; #@! TA.AperFunction,Plated,PTH,ViaDrill
T1C0.300
%
G90
G05
T1
X26.5Y-22.5
X26.5Y-23.0
X26.5Y-23.5
X26.5Y-23.5
X26.5Y-24.0
X26.5Y-24.5
X26.5Y-25.0
X26.5Y-25.5
X26.5Y-26.0
X26.5Y-26.5
X26.5Y-27.0
X26.5Y-27.5
X26.5Y-28.0
X26.5Y-28.5
X26.5Y-29.0
X26.5Y-29.5
X26.5Y-30.0
X26.5Y-30.5
X26.5Y-31.0
X26.5Y-31.5
X26.5Y-32.0
X26.5Y-32.5
X26.5Y-33.0
X26.5Y-33.5
X26.5Y-34.0
X26.5Y-34.5
X26.5Y-35.0
X26.5Y-35.0
X26.5Y-35.5
X26.5Y-36.0
X26.5Y-36.5
X26.5Y-37.0
X26.5Y-37.5
X26.5Y-38.0
X26.5Y-38.5
X26.5Y-39.0
X26.5Y-39.5
X26.5Y-40.0
X26.5Y-40.5
X26.5Y-41.0
X26.5Y-41.5
X26.5Y-42.0
X26.5Y-42.5
X26.5Y-43.0
X26.5Y-43.5
X26.5Y-44.0
X26.5Y-44.5
X26.5Y-45.0
X26.5Y-45.5
X26.5Y-46.0
X26.5Y-46.5
X26.5Y-47.0
X26.5Y-47.0
X26.5Y-47.5
X26.5Y-48.0
X26.5Y-48.5
X26.5Y-49.0
X26.5Y-49.5
X26.5Y-50.0
X26.5Y-50.5
X26.5Y-51.0
X26.5Y-51.5
X26.5Y-52.0
X26.5Y-52.5
X26.5Y-53.0
X26.5Y-53.5
X26.5Y-54.0
X26.5Y-54.5
X26.5Y-55.0
X26.5Y-55.5
X26.5Y-56.0
X26.5Y-56.5
X26.5Y-57.0
X26.5Y-57.5
X26.5Y-58.0
X26.5Y-58.5
X26.5Y-59.0
X26.5Y-59.5
X26.5Y-60.0
X26.5Y-60.0
X26.5Y-60.5
X26.5Y-61.0
X26.5Y-61.5
X26.5Y-62.0
X26.5Y-62.5
X26.5Y-63.0
X26.5Y-63.5
X26.5Y-64.0
X26.5Y-64.5
X26.5Y-65.0
X26.5Y-65.5
X26.5Y-66.0
X26.5Y-66.5
X26.5Y-67.0
X26.5Y-67.5
X26.5Y-68.0
X26.5Y-68.5
X26.5Y-69.0
X26.5Y-69.5
X26.5Y-70.0
X26.5Y-70.5
X26.5Y-71.0
X26.5Y-71.5
X26.5Y-72.0
X26.5Y-72.5
X26.5Y-73.0
X26.5Y-73.5
X26.5Y-74.0
X26.5Y-74.5
X26.5Y-75.0
X26.5Y-75.5
X26.5Y-76.0
X26.5Y-76.5
X26.5Y-77.0
X26.5Y-77.5
X43.5Y-32.5
X66.5Y-50.0
M30
